<svg width="33" height="32" viewBox="0 0 33 32" fill="none" xmlns="http://www.w3.org/2000/svg">
<g id="Phosphor/Duotone/Coins">
<path id="Vector" opacity="0.2" d="M30.5 16.5C30.5 18.985 26.0225 21 20.5 21C18.05 21 15.805 20.6037 14.0662 19.945C18.845 19.6062 22.5 17.75 22.5 15.5V12.09C27.065 12.5075 30.5 14.3225 30.5 16.5ZM22.5 10.5C22.5 8.015 18.0225 6 12.5 6C6.9775 6 2.5 8.015 2.5 10.5C2.5 12.985 6.9775 15 12.5 15C18.0225 15 22.5 12.985 22.5 10.5Z" fill="white" fill-opacity="0.9"/>
<path id="Vector_2" d="M23.5 11.1962V10.5C23.5 7.365 18.7712 5 12.5 5C6.22875 5 1.5 7.365 1.5 10.5V15.5C1.5 18.1112 4.78125 20.1863 9.5 20.8075V21.5C9.5 24.635 14.2288 27 20.5 27C26.7712 27 31.5 24.635 31.5 21.5V16.5C31.5 13.9125 28.3225 11.835 23.5 11.1962ZM29.5 16.5C29.5 18.1525 25.6512 20 20.5 20C20.0338 20 19.5712 19.9838 19.115 19.9538C21.8112 18.9713 23.5 17.375 23.5 15.5V13.2175C27.2337 13.7737 29.5 15.2838 29.5 16.5ZM9.5 18.7812V15.8075C10.4947 15.9371 11.4969 16.0014 12.5 16C13.5031 16.0014 14.5053 15.9371 15.5 15.8075V18.7812C14.5068 18.928 13.504 19.0011 12.5 19C11.496 19.0011 10.4932 18.928 9.5 18.7812ZM21.5 13.7413V15.5C21.5 16.5487 19.9487 17.675 17.5 18.3587V15.4375C19.1138 15.0463 20.48 14.4637 21.5 13.7413ZM12.5 7C17.6512 7 21.5 8.8475 21.5 10.5C21.5 12.1525 17.6512 14 12.5 14C7.34875 14 3.5 12.1525 3.5 10.5C3.5 8.8475 7.34875 7 12.5 7ZM3.5 15.5V13.7413C4.52 14.4637 5.88625 15.0463 7.5 15.4375V18.3587C5.05125 17.675 3.5 16.5487 3.5 15.5ZM11.5 21.5V20.9788C11.8287 20.9913 12.1613 21 12.5 21C12.985 21 13.4587 20.9837 13.9237 20.9562C14.4403 21.1412 14.9665 21.2981 15.5 21.4263V24.3587C13.0513 23.675 11.5 22.5487 11.5 21.5ZM17.5 24.7812V21.8C18.4944 21.9337 19.4967 22.0005 20.5 22C21.5031 22.0014 22.5053 21.9371 23.5 21.8075V24.7812C21.5106 25.0729 19.4894 25.0729 17.5 24.7812ZM25.5 24.3587V21.4375C27.1138 21.0462 28.48 20.4637 29.5 19.7412V21.5C29.5 22.5487 27.9487 23.675 25.5 24.3587Z" fill="white" fill-opacity="0.9"/>
</g>
</svg>
