<svg width="57" height="56" viewBox="0 0 57 56" fill="none" xmlns="http://www.w3.org/2000/svg">
<path opacity="0.2" d="M51.25 28C51.25 30.7366 47.3519 32.8016 46.2887 35.3697C45.265 37.8459 46.5994 42.0744 44.5869 44.0869C42.5744 46.0994 38.3459 44.765 35.8697 45.7887C33.3125 46.8519 31.2344 50.75 28.5 50.75C25.7656 50.75 23.6875 46.8519 21.1303 45.7887C18.6541 44.765 14.4256 46.0994 12.4131 44.0869C10.4006 42.0744 11.735 37.8459 10.7113 35.3697C9.64812 32.8125 5.75 30.7344 5.75 28C5.75 25.2656 9.64812 23.1875 10.7113 20.6303C11.735 18.1562 10.4006 13.9256 12.4131 11.9131C14.4256 9.90062 18.6562 11.235 21.1303 10.2113C23.6984 9.14812 25.7656 5.25 28.5 5.25C31.2344 5.25 33.3125 9.14812 35.8697 10.2113C38.3459 11.235 42.5744 9.90062 44.5869 11.9131C46.5994 13.9256 45.265 18.1541 46.2887 20.6303C47.3519 23.1984 51.25 25.2656 51.25 28Z" fill="url(#paint0_linear_5790_13540)"/>
<path d="M49.9069 22.4919C49.0822 21.63 48.2291 20.7419 47.9075 19.9609C47.61 19.2456 47.5925 18.06 47.575 16.9116C47.5422 14.7766 47.5072 12.3572 45.825 10.675C44.1428 8.99281 41.7234 8.95781 39.5884 8.925C38.44 8.9075 37.2544 8.89 36.5391 8.5925C35.7603 8.27094 34.87 7.41781 34.0081 6.59312C32.4987 5.14281 30.7838 3.5 28.5 3.5C26.2162 3.5 24.5034 5.14281 22.9919 6.59312C22.13 7.41781 21.2419 8.27094 20.4609 8.5925C19.75 8.89 18.56 8.9075 17.4116 8.925C15.2766 8.95781 12.8572 8.99281 11.175 10.675C9.49281 12.3572 9.46875 14.7766 9.425 16.9116C9.4075 18.06 9.39 19.2456 9.0925 19.9609C8.77094 20.7397 7.91781 21.63 7.09312 22.4919C5.64281 24.0012 4 25.7162 4 28C4 30.2838 5.64281 31.9966 7.09312 33.5081C7.91781 34.37 8.77094 35.2581 9.0925 36.0391C9.39 36.7544 9.4075 37.94 9.425 39.0884C9.45781 41.2234 9.49281 43.6428 11.175 45.325C12.8572 47.0072 15.2766 47.0422 17.4116 47.075C18.56 47.0925 19.7456 47.11 20.4609 47.4075C21.2397 47.7291 22.13 48.5822 22.9919 49.4069C24.5012 50.8572 26.2162 52.5 28.5 52.5C30.7838 52.5 32.4966 50.8572 34.0081 49.4069C34.87 48.5822 35.7581 47.7291 36.5391 47.4075C37.2544 47.11 38.44 47.0925 39.5884 47.075C41.7234 47.0422 44.1428 47.0072 45.825 45.325C47.5072 43.6428 47.5422 41.2234 47.575 39.0884C47.5925 37.94 47.61 36.7544 47.9075 36.0391C48.2291 35.2603 49.0822 34.37 49.9069 33.5081C51.3572 31.9987 53 30.2838 53 28C53 25.7162 51.3572 24.0034 49.9069 22.4919ZM47.3803 31.0866C46.3325 32.1803 45.2475 33.3113 44.6722 34.7003C44.1209 36.0347 44.0969 37.5594 44.075 39.0359C44.0531 40.5672 44.0291 42.1706 43.3488 42.8488C42.6684 43.5269 41.0759 43.5531 39.5359 43.575C38.0594 43.5969 36.5347 43.6209 35.2003 44.1722C33.8113 44.7475 32.6803 45.8325 31.5866 46.8803C30.4928 47.9281 29.375 49 28.5 49C27.625 49 26.4984 47.9237 25.4134 46.8803C24.3284 45.8369 23.1888 44.7475 21.7997 44.1722C20.4653 43.6209 18.9406 43.5969 17.4641 43.575C15.9328 43.5531 14.3294 43.5291 13.6512 42.8488C12.9731 42.1684 12.9469 40.5759 12.925 39.0359C12.9031 37.5594 12.8791 36.0347 12.3278 34.7003C11.7525 33.3113 10.6675 32.1803 9.61969 31.0866C8.57187 29.9928 7.5 28.875 7.5 28C7.5 27.125 8.57625 25.9984 9.61969 24.9134C10.6631 23.8284 11.7525 22.6888 12.3278 21.2997C12.8791 19.9653 12.9031 18.4406 12.925 16.9641C12.9469 15.4328 12.9709 13.8294 13.6512 13.1512C14.3316 12.4731 15.9241 12.4469 17.4641 12.425C18.9406 12.4031 20.4653 12.3791 21.7997 11.8278C23.1888 11.2525 24.3197 10.1675 25.4134 9.11969C26.5072 8.07187 27.625 7 28.5 7C29.375 7 30.5016 8.07625 31.5866 9.11969C32.6716 10.1631 33.8113 11.2525 35.2003 11.8278C36.5347 12.3791 38.0594 12.4031 39.5359 12.425C41.0672 12.4469 42.6706 12.4709 43.3488 13.1512C44.0269 13.8316 44.0531 15.4241 44.075 16.9641C44.0969 18.4406 44.1209 19.9653 44.6722 21.2997C45.2475 22.6888 46.3325 23.8197 47.3803 24.9134C48.4281 26.0072 49.5 27.125 49.5 28C49.5 28.875 48.4237 30.0016 47.3803 31.0866ZM38.4881 21.5119C38.6508 21.6744 38.7799 21.8674 38.868 22.0799C38.956 22.2923 39.0014 22.52 39.0014 22.75C39.0014 22.98 38.956 23.2077 38.868 23.4201C38.7799 23.6326 38.6508 23.8256 38.4881 23.9881L26.2381 36.2381C26.0756 36.4008 25.8826 36.5299 25.6701 36.618C25.4577 36.706 25.23 36.7514 25 36.7514C24.77 36.7514 24.5423 36.706 24.3299 36.618C24.1174 36.5299 23.9244 36.4008 23.7619 36.2381L18.5119 30.9881C18.1835 30.6598 17.999 30.2144 17.999 29.75C17.999 29.2856 18.1835 28.8402 18.5119 28.5119C18.8402 28.1835 19.2856 27.999 19.75 27.999C20.2144 27.999 20.6598 28.1835 20.9881 28.5119L25 32.5259L36.0119 21.5119C36.1744 21.3492 36.3674 21.2201 36.5799 21.132C36.7923 21.044 37.02 20.9986 37.25 20.9986C37.48 20.9986 37.7077 21.044 37.9201 21.132C38.1326 21.2201 38.3256 21.3492 38.4881 21.5119Z" fill="url(#paint1_linear_5790_13540)"/>
<defs>
<linearGradient id="paint0_linear_5790_13540" x1="5.75" y1="50.75" x2="40.1015" y2="39.2401" gradientUnits="userSpaceOnUse">
<stop stop-color="#FF9F0A"/>
<stop offset="1" stop-color="#FF375F"/>
</linearGradient>
<linearGradient id="paint1_linear_5790_13540" x1="4" y1="52.5" x2="40.9939" y2="40.1047" gradientUnits="userSpaceOnUse">
<stop stop-color="#FF9F0A"/>
<stop offset="1" stop-color="#FF375F"/>
</linearGradient>
</defs>
</svg>
